<svg width="176" height="171" viewBox="0 0 176 171" fill="none" xmlns="http://www.w3.org/2000/svg">
<path d="M88 171C136.601 171 176 132.72 176 85.5C176 51.2427 155.264 21.6911 125.321 8.04759C125.608 8.43669 125.879 8.8731 126.135 9.3568C127.042 10.8366 127.702 12.933 128.115 15.646C128.61 18.2768 128.857 21.6885 128.857 25.8813C128.857 27.7722 128.527 29.6219 127.867 31.4306C127.29 33.157 126.506 34.8835 125.516 36.6099C124.526 38.2542 123.412 39.8573 122.175 41.4193C120.937 42.8991 119.659 44.2967 118.339 45.6121C115.204 48.7361 111.697 51.6135 107.82 54.2443L106.582 52.1479C107.077 51.5724 107.614 50.6681 108.191 49.4349C108.769 48.1195 109.305 46.6397 109.8 44.9955C110.295 43.2691 110.666 41.4193 110.914 39.4462C111.244 37.3909 111.409 35.3356 111.409 33.2804C111.409 29.1698 110.584 26.1691 108.934 24.2782C107.366 22.3051 105.592 21.3186 103.612 21.3186C102.54 21.3186 101.426 21.6474 100.271 22.3051C99.1162 22.9628 98.085 23.9905 97.1775 25.3881C96.27 26.7034 95.4862 28.3888 94.8262 30.4441C94.2487 32.4993 93.96 34.9657 93.96 37.8431C93.96 39.3229 94.29 41.9537 94.95 45.7354C95.6925 49.5171 96.6 53.9566 97.6725 59.0537C98.7449 64.1508 99.8587 69.7001 101.014 75.7015C102.251 81.6207 103.406 87.54 104.479 93.4592C105.551 99.3784 106.417 105.051 107.077 110.477C107.82 115.821 108.191 120.466 108.191 124.412C108.191 128.358 107.49 132.51 106.087 136.867C104.767 141.142 103.035 145.376 100.89 149.569C98.7449 153.679 96.3937 157.584 93.8362 161.284C91.3261 164.915 88.8956 168.15 86.5444 170.989C87.0287 170.996 87.5139 171 88 171Z" fill="white"/>
<path d="M48.9002 162.118C47.59 160.579 46.3574 159.026 45.2024 157.461C43.0574 154.583 41.325 151.829 40.005 149.199C41.9025 146.568 43.8825 144.019 45.945 141.553C47.6774 139.415 49.6162 137.196 51.7612 134.894C53.8237 132.592 55.8862 130.537 57.9487 128.728H58.1962C59.4337 131.934 61.0012 135.469 62.8987 139.333C64.7962 143.197 66.8175 146.814 68.9625 150.185C71.19 153.556 73.4587 156.392 75.7687 158.694C78.0787 160.914 80.265 162.024 82.3275 162.024C82.74 162.024 83.3587 161.9 84.1837 161.654C85.0912 161.407 85.9575 160.873 86.7825 160.051C87.6075 159.146 88.3087 157.831 88.8862 156.104C89.5462 154.296 89.8762 151.829 89.8762 148.705C89.8762 146.568 89.4637 142.992 88.6387 137.977C87.8962 132.962 86.9062 127.248 85.6687 120.836C84.4312 114.423 83.1112 107.682 81.7087 100.612C80.3887 93.5414 79.11 86.8823 77.8725 80.6342C76.635 74.3861 75.6037 68.9191 74.7787 64.233C74.0362 59.4647 73.665 56.2174 73.665 54.4909C73.665 50.8736 74.4075 47.3796 75.8925 44.009C77.46 40.5561 79.275 37.3909 81.3375 34.5135C83.4825 31.5539 85.6687 28.9643 87.8962 26.7445C90.1237 24.5248 91.8975 22.7984 93.2175 21.5652C95.1975 19.921 97.3837 18.1534 99.7762 16.2626C102.251 14.3717 104.685 12.6042 107.077 10.9599C109.552 9.3157 111.862 7.95921 114.007 6.89045C115.704 5.97996 117.169 5.4296 118.401 5.23937C108.926 1.85039 98.6855 0 88 0C39.3989 0 0 38.2797 0 85.5C0 119.075 19.9182 148.129 48.9002 162.118Z" fill="white"/>
</svg>
